<svg id="Calque_2" data-name="Calque 2" xmlns="http://www.w3.org/2000/svg" viewBox="0 0 400 400"><defs><style>.cls-1{fill:#fff;}</style></defs><title>ajouter</title><path class="cls-1" d="M352.39,180H285.05a6.17,6.17,0,1,0,0,12.34h56.23l17.89,166.85H47L68,192.31h56.36a6.17,6.17,0,1,0,0-12.34H57.14L33,371.52H372.93Z"/><path class="cls-1" d="M131.51,106.05a126.77,126.77,0,0,0,2.11,42.75C149.06,222,186.14,266.2,197.7,278.54c-.9.54-1.9,1-2.74,1.59-1.36.89-2.69,1.79-4,2.75A6.18,6.18,0,0,0,194.63,294a6.15,6.15,0,0,0,3.64-1.2c1.09-.82,2.21-1.57,3.38-2.32a65.53,65.53,0,0,1,6.28-3.6,6.14,6.14,0,0,0,2.84-7.84c0-.06.11-.09.14-.15,11.2-11.83,48.85-56.21,64.45-130.13a126.26,126.26,0,0,0,2.11-42.75C272.16,65.44,246.94,44,204.49,44c-23.78,0-42.17,6.75-54.67,19.84-.21-.24-44.62,2-44.62,2S133.27,106,131.51,106.05Zm-6.71-30.5s19.26-1,32.47-1.53c.75-.87,1.48-1.74,2.29-2.55,10.21-10.14,25.12-15.14,44.93-15.14,36.35,0,56.2,16.81,60.73,51.35a114.2,114.2,0,0,1-1.93,38.59c-14,66.44-47.46,108.62-58.8,121.41-11.35-12.83-44.78-55-58.77-121.41a115,115,0,0,1-2-38.59c.15-1.18.35-2.32.54-3.46C136.49,92.32,124.8,75.55,124.8,75.55Z"/><path class="cls-1" d="M239.91,265.32c-4.46.58-8.75,1.27-12.73,2.12a6.18,6.18,0,0,0,1.3,12.22,6.44,6.44,0,0,0,1.3-.13c3.61-.78,7.53-1.41,11.64-1.93a6.19,6.19,0,0,0-1.51-12.28Z"/><path class="cls-1" d="M259.13,269.94a6.2,6.2,0,0,0,6.18,5.92h.27l12.38-.52a6.17,6.17,0,0,0,5.88-6.46,6.34,6.34,0,0,0-6.46-5.88l-12.34.51A6.21,6.21,0,0,0,259.13,269.94Z"/><path class="cls-1" d="M171.6,298.39c-3.17,2.38-6.46,4.68-9.74,6.82a6.17,6.17,0,0,0,3.38,11.37,6.3,6.3,0,0,0,3.35-1c3.53-2.3,7.06-4.77,10.46-7.33a6.18,6.18,0,1,0-7.45-9.87Z"/><path class="cls-1" d="M309.82,257.26l-.49.37a22,22,0,0,1-8.33,3.26,6.17,6.17,0,0,0,1.24,12.22,6.07,6.07,0,0,0,1.27-.12,34,34,0,0,0,12.94-5.28l.85-.61a6.18,6.18,0,0,0-7.48-9.84Z"/><path class="cls-1" d="M87.76,306a6.19,6.19,0,1,0-12-3.23,41.44,41.44,0,0,0-1.39,8.66c0,.73,0,1.45,0,2.2,0,1.22.06,2.42.16,3.63a6.21,6.21,0,0,0,6.15,5.55l.63,0A6.18,6.18,0,0,0,86.86,316a19.78,19.78,0,0,1-.13-2.41c0-.52,0-1,.07-1.55A28.24,28.24,0,0,1,87.76,306Z"/><path class="cls-1" d="M309.18,209.6a37.08,37.08,0,0,0-14.75,1.11,6.18,6.18,0,0,0,1.68,12.13,5.26,5.26,0,0,0,1.7-.24,24.44,24.44,0,0,1,9.71-.76,6.18,6.18,0,1,0,1.66-12.24Z"/><path class="cls-1" d="M321.49,240.22a6.16,6.16,0,0,0,4.07,7.72,6,6,0,0,0,1.81.28,6.17,6.17,0,0,0,5.92-4.35,25.83,25.83,0,0,0,1.11-6c0-.52.06-1,.06-1.54a24.9,24.9,0,0,0-1.57-8.6,6.18,6.18,0,1,0-11.58,4.32,12.4,12.4,0,0,1,.79,4.28v.72A15.12,15.12,0,0,1,321.49,240.22Z"/><path class="cls-1" d="M141,316.82c-3.62,1.72-7.3,3.29-10.95,4.71a6.18,6.18,0,0,0,2.23,12,6.45,6.45,0,0,0,2.21-.42c3.94-1.51,7.9-3.2,11.76-5a6.18,6.18,0,0,0-5.25-11.2Z"/><path class="cls-1" d="M96,291.12a6.17,6.17,0,0,0,3-.75,15.19,15.19,0,0,1,5.64-1.79,8.8,8.8,0,0,1,2.51,0,6.13,6.13,0,0,0,6.94-5.3,6.24,6.24,0,0,0-5.34-6.95,25.24,25.24,0,0,0-5.49-.06,27.58,27.58,0,0,0-10.17,3.23,6.19,6.19,0,0,0,3,11.62Z"/><path class="cls-1" d="M94.76,339.58a31,31,0,0,0,4,.75,41.14,41.14,0,0,0,4.73.3,47.81,47.81,0,0,0,5.82-.39A6.17,6.17,0,0,0,107.8,328a31.52,31.52,0,0,1-7.52.09,24.08,24.08,0,0,1-2.42-.48,6.19,6.19,0,0,0-3.1,12Z"/><path class="cls-1" d="M151.18,115.69l-.07.16C151.17,115.85,151.18,115.79,151.18,115.69Z"/><path class="cls-1" d="M249.53,133.13H215v34H199.07v-34H164.54v-15h34.53V84H215v34.15h34.53Z"/></svg>