<svg id="Calque_1" data-name="Calque 1" xmlns="http://www.w3.org/2000/svg" viewBox="0 0 145.47 119.04"><defs><style>.cls-1{fill:#1e5d93;}.cls-2{fill:none;stroke:#1e5d93;stroke-miterlimit:10;stroke-width:2px;}</style></defs><title>bird-2</title><path class="cls-1" d="M28.75,59.51A42.56,42.56,0,0,0,32.6,72.17c-5.5,5-8.88,9.91-7.72,11.33.65.82,2.65.36,5.33-1a1.56,1.56,0,0,0,.32.87,2.26,2.26,0,0,0,2.13.55,3,3,0,0,0,.57,1.51c1.43,1.77,4.87,1.38,8.43-.68a49.2,49.2,0,0,0,15.27,10,62.72,62.72,0,0,0,22.88,4.54c5.82,0,14.46-1.38,20.69-5.9,6.75-4.91,15.9-14.06,17.57-21.54a49.4,49.4,0,0,0,.9-20.23l11.19-14.13c-4.77,2.72-12.45-1.26-12.45-1.26a38.52,38.52,0,0,0,11.59-5.5L110.06,28A48,48,0,0,0,90.73,13.57,47.28,47.28,0,0,0,67.11,9.73a41.82,41.82,0,0,0-21,8.21A42.68,42.68,0,0,0,32,36.35,43.79,43.79,0,0,0,28.75,59.51ZM48.07,40.05c5.17-12.4,20.17-17.86,33.51-12.19s20,20.31,14.8,32.71S76.21,78.43,62.87,72.76,42.91,52.45,48.07,40.05Z"/><ellipse class="cls-1" cx="122.08" cy="64.33" rx="2.91" ry="11.64" transform="translate(29.02 166.21) rotate(-75.37)"/><ellipse class="cls-1" cx="118.03" cy="66.71" rx="2.91" ry="11.64" transform="translate(23.68 164.06) rotate(-75.37)"/><ellipse class="cls-1" cx="111.55" cy="68.46" rx="2.91" ry="11.64" transform="translate(17.15 159.11) rotate(-75.37)"/><ellipse class="cls-1" cx="20.47" cy="74.98" rx="11.64" ry="2.91" transform="translate(-18.27 7.6) rotate(-14.63)"/><ellipse class="cls-1" cx="24.52" cy="77.36" rx="11.64" ry="2.91" transform="matrix(0.97, -0.25, 0.25, 0.97, -18.74, 8.7)"/><ellipse class="cls-1" cx="31" cy="79.11" rx="11.64" ry="2.91" transform="translate(-18.97 10.39) rotate(-14.63)"/><ellipse class="cls-1" cx="65.57" cy="101.7" rx="7.7" ry="1.64" transform="translate(-55.29 107.64) rotate(-60)"/><ellipse class="cls-1" cx="69.22" cy="100.92" rx="7.7" ry="1.64" transform="translate(-52.79 110.41) rotate(-60)"/><ellipse class="cls-1" cx="62.54" cy="102.35" rx="7.7" ry="1.64" transform="translate(-57.37 105.33) rotate(-60)"/><path class="cls-2" d="M77.68,86.2s8.55,12.33,3.64,19.37S86,110.44,86,110.44"/><path class="cls-2" d="M81.56,86.73s13.32,6.93,12.25,15.45,6.39,2.13,6.39,2.13"/><path class="cls-1" d="M55.25,63.3S50.58,51.58,63,43.59s25.45,0,25.45,0S75,42.52,67.2,48.38,55.25,63.3,55.25,63.3Z"/></svg>