<svg id="Calque_2" data-name="Calque 2" xmlns="http://www.w3.org/2000/svg" viewBox="0 0 400 400"><defs><style>.cls-1{fill:#fff;}</style></defs><title>bird-more</title><path class="cls-1" d="M313.91,238.26H274.64l16.72-24.14c31.55-42.08,27-111.25-9.78-148a105.13,105.13,0,0,0-131.38-14l-45.81-12,13.26,46.1c-22.09,38.31-21.16,92.6,5.23,127.78l16.85,24.32H98.51L38.42,364.46H374ZM156,105.9A54,54,0,0,1,176.88,85a61.15,61.15,0,0,1,59.34,0,52.37,52.37,0,0,1,20.67,20.93q7.68,13.51,7.68,30.73t-7.68,30.73a54.22,54.22,0,0,1-20.67,21.2,63,63,0,0,1-59.34,0A56,56,0,0,1,156,167.36q-7.42-13.5-7.42-30.73T156,105.9ZM105.44,249.24h41.87l59.87,86.45L267,249.24H307l49.64,104.23H55.8Z"/><path class="cls-1" d="M206.6,171.66a34.3,34.3,0,1,0-34.3-34.3A34.3,34.3,0,0,0,206.6,171.66Z"/></svg>