<svg id="Calque_2" data-name="Calque 2" xmlns="http://www.w3.org/2000/svg" viewBox="0 0 400 400"><defs><style>.cls-1{fill:#fff;}</style></defs><title>blog</title><path class="cls-1" d="M155.94,240.06H29.56c-7.76,0-14,3.77-14,8.43s6.29,8.42,14.05,8.42H155.94c7.76,0,14.05-3.77,14.05-8.42s-6.29-8.43-14.05-8.43Zm0,0"/><path class="cls-1" d="M155.94,193H29.56c-7.76,0-14,3.77-14,8.43s6.29,8.42,14.05,8.42H155.94c7.76,0,14.05-3.77,14.05-8.42S163.7,193,155.94,193Zm0,0"/><path class="cls-1" d="M160,146H69.85c-5.54,0-10,3.77-10,8.42s4.48,8.43,10,8.43H160c5.53,0,10-3.77,10-8.43S165.5,146,160,146Zm0,0"/><path class="cls-1" d="M348.77,199H215.93V113.18H348.77ZM227.86,187.08h109v-62h-109Z"/><rect class="cls-1" x="221.89" y="234.1" width="120.91" height="11.93"/><rect class="cls-1" x="221.89" y="260.97" width="120.91" height="11.93"/><path class="cls-1" d="M379,319.92H185.69V86.31H379ZM197.62,308H367.07V98.24H197.62Z"/></svg>