<svg id="Calque_2" data-name="Calque 2" xmlns="http://www.w3.org/2000/svg" viewBox="0 0 400 400"><defs><style>.cls-1{fill:#fff;}</style></defs><title>carte</title><path class="cls-1" d="M344.81,58.78a5.4,5.4,0,0,0-5.36-.13l-90.29,47.78L158.87,58.65a1.13,1.13,0,0,0-.22-.09c-.26-.13-.53-.21-.79-.32a3.91,3.91,0,0,1-.46-.11l-.93-.1a1.78,1.78,0,0,0-.4,0,3.74,3.74,0,0,0-.88.13,4.15,4.15,0,0,0-.48.11h-.14L56.28,91.05a5.43,5.43,0,0,0-3.73,5.19V331.07a5.44,5.44,0,0,0,2.26,4.42A5.34,5.34,0,0,0,58,336.54a5.86,5.86,0,0,0,1.73-.29l96.34-32.11,91,37.44c.08.05.16,0,.24.05a5.48,5.48,0,0,0,1.84.37,5.12,5.12,0,0,0,1.44-.21l.45-.19c.21-.08.46-.13.67-.23l92.82-49.16a5.48,5.48,0,0,0,2.91-4.82V63.47a5.43,5.43,0,0,0-2.64-4.69ZM63.48,100.17,150.84,71V218.46c-2.34.42-4.64.91-6.88,1.49a5.46,5.46,0,1,0,2.8,10.56c1.31-.34,2.72-.51,4.08-.8v64.67L63.48,323.49Zm98.29,128c1.77-.16,3.44-.37,5.26-.4a5.47,5.47,0,0,0-.11-10.94h-.14c-1.67,0-3.35.14-5,.25V72.54l81.92,43.35V231.65a78.47,78.47,0,0,1-12-1.44,5.46,5.46,0,0,0-2.08,10.73,91.61,91.61,0,0,0,14.1,1.57v85.86l-81.92-33.73Zm174.78,55.89-81.92,43.37V241.92a5.38,5.38,0,0,0,3.2-5.33,5.49,5.49,0,0,0-3.2-4.51V115.89l81.92-43.35Zm0,0"/><path class="cls-1" d="M112.63,101.68a27.32,27.32,0,0,0-5.47,54.08v11.47a5.47,5.47,0,0,0,10.94,0V155.76a27.32,27.32,0,0,0-5.47-54.08Zm0,43.71A16.39,16.39,0,1,1,129,129a16.43,16.43,0,0,1-16.37,16.4Zm0,0"/><path class="cls-1" d="M298.68,203.69a6.08,6.08,0,0,0,2,.36,5.5,5.5,0,0,0,5.1-3.48,123.88,123.88,0,0,0,6.13-22,5.47,5.47,0,1,0-10.75-2,110.45,110.45,0,0,1-5.57,20,5.5,5.5,0,0,0,3.09,7.1Zm0,0"/><path class="cls-1" d="M122.47,229.18a75.5,75.5,0,0,0-17.66,15.38,5.47,5.47,0,0,0,4.17,9,5.41,5.41,0,0,0,4.18-2,65.19,65.19,0,0,1,15.12-13.17,5.46,5.46,0,1,0-5.81-9.25Zm0,0"/><path class="cls-1" d="M99.67,261.58a5.48,5.48,0,0,0-7.25,2.66,86.07,86.07,0,0,0-7,22.4A5.41,5.41,0,0,0,90,292.77a3.12,3.12,0,0,0,.75.06,5.5,5.5,0,0,0,5.41-4.69,76.43,76.43,0,0,1,6.13-19.31,5.48,5.48,0,0,0-2.66-7.25Zm0,0"/><path class="cls-1" d="M273.32,236.75a5.54,5.54,0,0,0,2.48-.59,57.66,57.66,0,0,0,18.48-15.22,5.46,5.46,0,0,0-8.53-6.83,46,46,0,0,1-14.93,12.32,5.44,5.44,0,0,0-2.38,7.36,5.5,5.5,0,0,0,4.88,3Zm0,0"/><path class="cls-1" d="M211.85,224.21c-2.4-1-3.81-1.72-3.91-1.75a4.12,4.12,0,0,0-1.12-.43,176.25,176.25,0,0,0-17.32-3.57,5.44,5.44,0,0,0-6.24,4.56,5.5,5.5,0,0,0,4.59,6.24c5.05.77,10.32,1.83,15.71,3.2.72.34,2.14,1,4.08,1.84a5.47,5.47,0,0,0,4.21-10.09Zm0,0"/><path class="cls-1" d="M308.81,161.39l.35,0a5.47,5.47,0,0,0,5.44-5.12c.35-5.25.51-10.8.51-16.5,0-1.89,0-3.81-.06-5.78a5.61,5.61,0,0,0-5.54-5.37,5.49,5.49,0,0,0-5.37,5.58c0,1.89.06,3.76.06,5.57,0,5.47-.16,10.77-.48,15.82a5.44,5.44,0,0,0,5.09,5.78Zm0,0"/><path class="cls-1" d="M97.83,209.31a5.47,5.47,0,0,0,7.73,0l7.07-7,7.06,7a5.45,5.45,0,0,0,7.71-7.71l-7.06-7.06,7.06-7.07a5.45,5.45,0,0,0-7.71-7.71l-7.06,7-7.07-7a5.46,5.46,0,0,0-7.73,7.71l7.06,7.07-7.06,7.06a5.43,5.43,0,0,0,0,7.71Zm0,0"/></svg>