<svg id="Calque_2" data-name="Calque 2" xmlns="http://www.w3.org/2000/svg" viewBox="0 0 400 400"><defs><style>.cls-1{fill:#fff;}</style></defs><title>facebook</title><path class="cls-1" d="M120.39,210.85H157.3V361.08a5.4,5.4,0,0,0,5.43,5.37H225.3a5.4,5.4,0,0,0,5.43-5.37V211.56h42.43a5.42,5.42,0,0,0,5.4-4.75L285,151.5a5.32,5.32,0,0,0-1.34-4.19,5.47,5.47,0,0,0-4.05-1.79H230.73V110.85c0-10.45,5.7-15.75,16.92-15.75h32A5.41,5.41,0,0,0,285,89.73V39a5.4,5.4,0,0,0-5.43-5.36h-44c-.31,0-1-.05-2-.05-7.65,0-34.2,1.49-55.18,20.57-23.25,21.14-20,46.47-19.24,50.85v40.55H120.39a5.39,5.39,0,0,0-5.43,5.36v54.6a5.4,5.4,0,0,0,5.43,5.37Zm0,0"/></svg>