<svg id="Calque_2" data-name="Calque 2" xmlns="http://www.w3.org/2000/svg" viewBox="0 0 400 400"><defs><style>.cls-1{fill:#fff;}</style></defs><title>mail</title><path class="cls-1" d="M316.82,97H86.54a37.3,37.3,0,0,0-37.27,37.27V291.65a37.3,37.3,0,0,0,37.27,37.27H316.75A37.3,37.3,0,0,0,354,291.65V134.33A37.26,37.26,0,0,0,316.82,97Zm20.24,194.65a20.26,20.26,0,0,1-20.24,20.24H86.54A20.26,20.26,0,0,1,66.3,291.65V134.33a20.26,20.26,0,0,1,20.24-20.24H316.75A20.26,20.26,0,0,1,337,134.33V291.65Zm0,0"/><path class="cls-1" d="M241.47,211,316,144.17a8.53,8.53,0,0,0-11.41-12.68L201.8,223.74l-20.05-17.91c-.06-.06-.12-.12-.12-.19a14.31,14.31,0,0,0-1.39-1.19l-81.59-73a8.53,8.53,0,0,0-11.36,12.74l75.42,67.4-75.1,70.31a8.55,8.55,0,0,0-.38,12,8.7,8.7,0,0,0,6.24,2.71,8.51,8.51,0,0,0,5.81-2.27l76.23-71.31,20.68,18.47a8.51,8.51,0,0,0,5.68,2.14,8.42,8.42,0,0,0,5.67-2.2l21.25-19,75.8,72a8.52,8.52,0,1,0,11.72-12.36Zm0,0"/></svg>