<svg id="svg8" xmlns="http://www.w3.org/2000/svg" viewBox="0 0 216.3 118.13"><defs><style>.cls-1{fill:#1e5d93;}</style></defs><title>nao-carre</title><g id="layer1"><g id="text3978"><path id="path3991" class="cls-1" d="M68.41,10.87v63h-12L25,35.62V73.87H10.63v-63H22.69L54,49.12V10.87Z" transform="translate(-5.24 -9.57)"/><path id="path3993" class="cls-1" d="M124.9,60.37H95.65l-5.58,13.5H75.13l28.08-63h14.4l28.17,63h-15.3ZM120.31,49.3l-10-24.12-10,24.12Z" transform="translate(-5.24 -9.57)"/><path id="path3995" class="cls-1" d="M181.94,75a37,37,0,0,1-17.73-4.23,31.91,31.91,0,0,1-12.33-11.61,32.31,32.31,0,0,1-4.41-16.74,31.83,31.83,0,0,1,4.41-16.65L147.24,9.57l17,4.45a36.92,36.92,0,0,1,17.73-4.23A36.51,36.51,0,0,1,199.58,14a31.7,31.7,0,0,1,12.33,11.7,31.34,31.34,0,0,1,4.5,16.65,31.39,31.39,0,0,1-16.83,28.35A36.51,36.51,0,0,1,181.94,75Zm0-12.42A20.27,20.27,0,0,0,192,60a18.41,18.41,0,0,0,7-7.2,20.75,20.75,0,0,0,2.61-10.44A20.75,20.75,0,0,0,199,31.93a17.79,17.79,0,0,0-7-7.11,20.77,20.77,0,0,0-20.16,0,18.4,18.4,0,0,0-7.11,7.11,21.33,21.33,0,0,0-2.52,10.44,21.33,21.33,0,0,0,2.52,10.44,19.05,19.05,0,0,0,7.11,7.2A20.27,20.27,0,0,0,181.94,62.53Z" transform="translate(-5.24 -9.57)"/><circle id="path4006" class="cls-1" cx="176.72" cy="32.81" r="11.65"/></g><path id="path4050" class="cls-1" d="M24,77.82a30.61,30.61,0,0,0-3.45.23q-.75.08-2.25.15c-1,0-1.88.07-2.63.07H12.51c-.65,0-2-.07-4.2-.07-1.45,0-2.17.27-2.17.82,0,.7.82,1.2,2.47,1.5a4.59,4.59,0,0,1,3.6,2.18,11.17,11.17,0,0,1,1,5.32v31.65a5.44,5.44,0,0,1-1.28,4,8.24,8.24,0,0,1-4.2,1.72,7.21,7.21,0,0,0-1.87.53.91.91,0,0,0-.6.82c0,.55.72.83,2.17.83s3-.1,5-.3c.4,0,1.05,0,2-.08a26.42,26.42,0,0,1,2.77-.15,18.3,18.3,0,0,1,3,.23,28.76,28.76,0,0,0,4.35.3c1.45,0,2.18-.28,2.18-.83a.91.91,0,0,0-.6-.82,7.31,7.31,0,0,0-1.88-.53,6.15,6.15,0,0,1-3.9-2.1,7.5,7.5,0,0,1-1.12-4.42V83.07q0-3.15,4.8-3.15,5.7,0,9.07,3t3.45,8.78q0,6.75-2.32,10.42a7.51,7.51,0,0,1-6.75,3.68c-.9,0-1.68,0-2.33-.08s-1-.07-1.12-.07a1.34,1.34,0,0,0-.83.37,1,1,0,0,0-.37.68c0,.35.3.67.9,1a5.9,5.9,0,0,0,2.47.45,17.8,17.8,0,0,0,9.3-2.25,13.73,13.73,0,0,0,5.63-6.07A19.66,19.66,0,0,0,43,91.17a11.16,11.16,0,0,0-5.17-9.75Q32.62,77.82,24,77.82Zm26.38.38c-1.45,0-2.18.27-2.18.82,0,.7.83,1.2,2.48,1.5a6.76,6.76,0,0,1,3.9,1.73A5.17,5.17,0,0,1,55.69,86v33.75a5.13,5.13,0,0,1-1.35,3.9,8.24,8.24,0,0,1-4.2,1.72,7.21,7.21,0,0,0-1.87.53.91.91,0,0,0-.6.82c0,.55.72.83,2.17.83.6,0,2.18-.08,4.73-.23a31.57,31.57,0,0,1,3.9-.22q5.1,0,10.27.22,11.7.23,13.2.23a.51.51,0,0,0,.45-.23,1.09,1.09,0,0,0,.38-.52c.1-.25.17-.43.22-.53a32.37,32.37,0,0,0,1.5-4.57,21.66,21.66,0,0,0,.83-4.13c0-.7-.33-1-1-1-.35,0-.7.33-1,1A33.34,33.34,0,0,1,81,121.25a7.75,7.75,0,0,1-2,2,8.26,8.26,0,0,1-2.78,1,22.34,22.34,0,0,1-4,.3H66.64a5.45,5.45,0,0,1-3.82-1.13c-.75-.75-1.13-2-1.13-3.9v-14.4a1.84,1.84,0,0,1,.53-1.57,4,4,0,0,1,2-.38h7a2.78,2.78,0,0,1,2.17.83,5.06,5.06,0,0,1,1.28,2.55c.4,1.6,1,2.4,1.72,2.4.45,0,.68-.43.68-1.28l-.08-1.8-.07-4,.15-3.3.07-1.95a1,1,0,0,0-.37-.83.8.8,0,0,0-.6-.37q-.9,0-1.35,1.65A6.28,6.28,0,0,1,73.39,100a4.36,4.36,0,0,1-2.92.75H63a1.35,1.35,0,0,1-1-.45,2,2,0,0,1-.38-1.2V83.22a2,2,0,0,1,1-1.65,3,3,0,0,1,1.72-.75h9.83a6.37,6.37,0,0,1,5,2A5.12,5.12,0,0,1,80.29,85q.45,1.58.6,2a1.63,1.63,0,0,0,.3.6.75.75,0,0,0,.53.15c.7,0,1-.37,1-1.12a24.27,24.27,0,0,0-.53-4.43q-.45-2.7-.6-3.3c0-.45-.5-.67-1.35-.67l-6.37.15-10.28.07-6.37-.07Q53.22,78.2,50.37,78.2Z" transform="translate(-5.24 -9.57)"/><path id="path4048" class="cls-1" d="M112.73,77.75c-.6,0-1.35,0-2.25.07l-2.85.15q-4.65.38-7.73.38c-2,0-3.3,0-4.05-.08l-4.27-.07c-1.45,0-2.18.32-2.18,1a1,1,0,0,0,.53.9,9.45,9.45,0,0,0,1.95.45,6.76,6.76,0,0,1,3.9,1.73A5.17,5.17,0,0,1,96.9,86v33.75a5.59,5.59,0,0,1-1.12,3.9,6.76,6.76,0,0,1-3.9,1.72,20.65,20.65,0,0,0-2,.45.69.69,0,0,0-.45.75c0,.65.73,1,2.18,1a34.92,34.92,0,0,0,4.5-.23c1.4-.1,2.52-.15,3.37-.15q3.9,0,12.15.38l3.45.15a25.31,25.31,0,0,0,13-3.53,26.36,26.36,0,0,0,9.53-9.52,25.72,25.72,0,0,0,3.52-13.13,24.32,24.32,0,0,0-3-12.15,20.05,20.05,0,0,0-9.3-8.47Q122.48,77.75,112.73,77.75Zm35.47.45c-1.45,0-2.18.27-2.18.82,0,.7.83,1.2,2.48,1.5a7.08,7.08,0,0,1,3.89,1.65,5.17,5.17,0,0,1,1.13,3.75v33.9a4.88,4.88,0,0,1-1.43,3.83,9.37,9.37,0,0,1-4.42,1.72,7.21,7.21,0,0,0-1.87.53.91.91,0,0,0-.6.82c0,.55.72.83,2.17.83,1.85,0,3.52-.08,5-.23,1.8-.1,3.33-.15,4.58-.15,1.05,0,2.38,0,4,.15a44.07,44.07,0,0,0,4.8.23c1.45,0,2.17-.28,2.17-.83a.91.91,0,0,0-.6-.82,7.21,7.21,0,0,0-1.87-.53,10,10,0,0,1-4.5-1.72,4.88,4.88,0,0,1-1.43-3.83V85.92a4.84,4.84,0,0,1,1.2-3.67,7.74,7.74,0,0,1,4.12-1.73c1.65-.3,2.48-.8,2.48-1.5,0-.55-.73-.82-2.18-.82s-3,0-4.57.15l-3.6.07-4-.07Q150.3,78.2,148.2,78.2Zm-35.1,1.87a19.8,19.8,0,0,1,10.05,2.78A20.54,20.54,0,0,1,131,90.72a23.66,23.66,0,0,1,3,12.08,25.47,25.47,0,0,1-2.55,11.55,18.89,18.89,0,0,1-17.33,10.72,19.89,19.89,0,0,1-8.25-1.42q-3-1.43-3-5.55V84.65A4,4,0,0,1,104,81.5a5.53,5.53,0,0,1,3.07-1.2A58.65,58.65,0,0,1,113.1,80.07Z" transform="translate(-5.24 -9.57)"/><path id="path4046" class="cls-1" d="M193.2,79.45l-.09,0a19.54,19.54,0,0,1-1.05,4.35Q187.94,95,184.93,102.5T178,119.07a10,10,0,0,1-2.7,3.9,12,12,0,0,1-3.75,1.88c-1.65.5-2.47,1.07-2.47,1.72,0,.3.2.53.6.68a3.51,3.51,0,0,0,1.57.3,36.84,36.84,0,0,0,3.9-.23q.75,0,2.25-.15c1,0,2-.07,2.85-.07l4.58.07c.6,0,1.35.08,2.25.08,1.45,0,2.17-.28,2.17-.83a.91.91,0,0,0-.6-.82,9,9,0,0,0-1.87-.68,7.21,7.21,0,0,1-3.15-1.57,3.57,3.57,0,0,1-1.2-2.7,28.36,28.36,0,0,1,1.12-4.5q1.13-3.9,1.95-6.3c.3-.9.73-1.35,1.28-1.35H201a4.49,4.49,0,0,1,1.43.15.91.91,0,0,1,.6.67q2.93,9.75,2.92,12.15,0,2.63-4.57,3.38a4.78,4.78,0,0,0-1.8.6c-.45.25-.68.52-.68.82,0,.6.73.9,2.18.9l7.87-.07q2.17,0,6.38.3l4.05.15c1.45,0,2.17-.25,2.17-.75a1.23,1.23,0,0,0-.67-1,3.76,3.76,0,0,0-1.8-.75,9.18,9.18,0,0,1-4.43-1.87q-1.73-1.5-3.15-5.63c-5.13-14.87-9.51-28-13.19-39.57a38.31,38.31,0,0,1-4,1.26C193.92,79.34,193.55,79.37,193.2,79.45Zm1.63,5.8c.15,0,.38.45.68,1.35l5.85,18.3.15.75q0,.22-.3.3a3.18,3.18,0,0,1-.75.07H188.83a7.48,7.48,0,0,1-1.27-.07.4.4,0,0,1-.3-.45l.15-.6,6.82-18.38C194.53,85.67,194.73,85.25,194.83,85.25Z" transform="translate(-5.24 -9.57)"/></g></svg>