<?xml version="1.0" encoding="UTF-8" standalone="no"?>
<!-- Created with Inkscape (http://www.inkscape.org/) -->

<svg
   xmlns:dc="http://purl.org/dc/elements/1.1/"
   xmlns:cc="http://creativecommons.org/ns#"
   xmlns:rdf="http://www.w3.org/1999/02/22-rdf-syntax-ns#"
   xmlns:svg="http://www.w3.org/2000/svg"
   xmlns="http://www.w3.org/2000/svg"
   xmlns:sodipodi="http://sodipodi.sourceforge.net/DTD/sodipodi-0.dtd"
   xmlns:inkscape="http://www.inkscape.org/namespaces/inkscape"
   width="76.304184mm"
   height="41.67189mm"
   viewBox="0 0 76.304184 41.67189"
   version="1.1"
   id="svg8"
   inkscape:version="0.92.2 (30a58d1, 2017-08-07)"
   sodipodi:docname="NAOlogo.svg"
   inkscape:export-filename="/home/thomas/NAOlogo.svg.png"
   inkscape:export-xdpi="332"
   inkscape:export-ydpi="332">
  <defs
     id="defs2" />
  <sodipodi:namedview
     id="base"
     pagecolor="#ffffff"
     bordercolor="#666666"
     borderopacity="1.0"
     inkscape:pageopacity="0.0"
     inkscape:pageshadow="2"
     inkscape:zoom="1.4"
     inkscape:cx="225.13357"
     inkscape:cy="-12.311063"
     inkscape:document-units="mm"
     inkscape:current-layer="layer1"
     showgrid="false"
     showguides="true"
     inkscape:guide-bbox="true"
     fit-margin-top="0"
     fit-margin-left="0"
     fit-margin-right="0"
     fit-margin-bottom="0"
     inkscape:window-width="1280"
     inkscape:window-height="955"
     inkscape:window-x="2704"
     inkscape:window-y="0"
     inkscape:window-maximized="1"
     inkscape:snap-nodes="false">
    <sodipodi:guide
       position="50.095184,41.67189"
       orientation="1,0"
       id="guide4031"
       inkscape:locked="false" />
    <sodipodi:guide
       position="50.095185,41.67189"
       orientation="0,1"
       id="guide4033"
       inkscape:locked="false" />
  </sodipodi:namedview>
  <metadata
     id="metadata5">
    <rdf:RDF>
      <cc:Work
         rdf:about="">
        <dc:format>image/svg+xml</dc:format>
        <dc:type
           rdf:resource="http://purl.org/dc/dcmitype/StillImage" />
        <dc:title />
      </cc:Work>
    </rdf:RDF>
  </metadata>
  <g
     inkscape:label="Calque 1"
     inkscape:groupmode="layer"
     id="layer1"
     style="display:inline"
     transform="translate(-38.103758,-69.553631)">
    <text
       xml:space="preserve"
       style="font-style:normal;font-weight:normal;font-size:10.58333302px;line-height:1.25;font-family:sans-serif;letter-spacing:0px;word-spacing:0px;fill:#000000;fill-opacity:1;stroke:none;stroke-width:0.26458332"
       x="46.113091"
       y="94.404755"
       id="text3974"><tspan
         sodipodi:role="line"
         id="tspan3972"
         x="46.113091"
         y="103.76852"
         style="stroke-width:0.26458332" /></text>
    <g
       aria-label="NAO"
       style="font-style:normal;font-variant:normal;font-weight:bold;font-stretch:normal;font-size:31.75px;line-height:1.25;font-family:Montserrat;-inkscape-font-specification:'Montserrat, Bold';font-variant-ligatures:normal;font-variant-caps:normal;font-variant-numeric:normal;font-feature-settings:normal;text-align:start;letter-spacing:0px;word-spacing:0px;writing-mode:lr-tb;text-anchor:start;fill:#1e5d93;fill-opacity:1;stroke:none;stroke-width:0.26458332"
       id="text3978">
      <path
         d="m 60.390229,70.011488 v 22.225 h -4.22275 l -11.08075,-13.49375 v 13.49375 h -5.08 v -22.225 h 4.2545 l 11.049,13.49375 v -13.49375 z"
         style="font-style:normal;font-variant:normal;font-weight:bold;font-stretch:normal;font-size:31.75px;font-family:Montserrat;-inkscape-font-specification:'Montserrat, Bold';font-variant-ligatures:normal;font-variant-caps:normal;font-variant-numeric:normal;font-feature-settings:normal;text-align:start;writing-mode:lr-tb;text-anchor:start;stroke-width:0.26458332;fill:#1e5d93;fill-opacity:1"
         id="path3991"
         inkscape:connector-curvature="0"
         inkscape:export-xdpi="332.79987"
         inkscape:export-ydpi="332.79987" />
      <path
         d="m 80.316331,87.473988 h -10.31875 l -1.9685,4.7625 h -5.2705 l 9.906,-22.225 h 5.08 l 9.93775,22.225 h -5.3975 z m -1.61925,-3.90525 -3.52425,-8.509 -3.52425,8.509 z"
         style="font-style:normal;font-variant:normal;font-weight:bold;font-stretch:normal;font-size:31.75px;font-family:Montserrat;-inkscape-font-specification:'Montserrat, Bold';font-variant-ligatures:normal;font-variant-caps:normal;font-variant-numeric:normal;font-feature-settings:normal;text-align:start;writing-mode:lr-tb;text-anchor:start;stroke-width:0.26458332;fill:#1e5d93;fill-opacity:1"
         id="path3993"
         inkscape:connector-curvature="0"
         inkscape:export-xdpi="332.79987"
         inkscape:export-ydpi="332.79987" />
      <path
         d="m 100.44137,92.617488 c -2.307168,0 -4.392086,-0.497417 -6.254753,-1.49225 -1.8415,-0.994833 -3.291417,-2.360083 -4.34975,-4.09575 -1.037167,-1.756833 -1.55575,-3.725333 -1.55575,-5.9055 0,-2.180167 0.518583,-4.138083 1.55575,-5.87375 l -1.637924,-5.696607 c 0,0 0,0 5.987674,1.569107 1.860302,-0.999248 3.947585,-1.49225 6.254753,-1.49225 2.30717,0 4.3815,0.497417 6.223,1.49225 1.8415,0.994833 3.29142,2.370667 4.34975,4.1275 1.05833,1.735667 1.5875,3.693583 1.5875,5.87375 0,2.180167 -0.52917,4.148667 -1.5875,5.9055 -1.05833,1.735667 -2.50825,3.100917 -4.34975,4.09575 -1.8415,0.994833 -3.91583,1.49225 -6.223,1.49225 z m 0,-4.3815 c 1.31233,0 2.49767,-0.296333 3.556,-0.889 1.05833,-0.613833 1.88383,-1.4605 2.4765,-2.54 0.61383,-1.0795 0.92075,-2.307167 0.92075,-3.683 0,-1.375833 -0.30692,-2.6035 -0.92075,-3.683 -0.59267,-1.0795 -1.41817,-1.915583 -2.4765,-2.50825 -1.05833,-0.613833 -2.24367,-0.92075 -3.556,-0.92075 -1.312335,0 -2.49767,0.306917 -3.556003,0.92075 -1.058333,0.592667 -1.894417,1.42875 -2.50825,2.50825 -0.592667,1.0795 -0.889,2.307167 -0.889,3.683 0,1.375833 0.296333,2.6035 0.889,3.683 0.613833,1.0795 1.449917,1.926167 2.50825,2.54 1.058333,0.592667 2.243668,0.889 3.556003,0.889 z"
         style="font-style:normal;font-variant:normal;font-weight:bold;font-stretch:normal;font-size:31.75px;font-family:Montserrat;-inkscape-font-specification:'Montserrat, Bold';font-variant-ligatures:normal;font-variant-caps:normal;font-variant-numeric:normal;font-feature-settings:normal;text-align:start;writing-mode:lr-tb;text-anchor:start;stroke-width:0.26458332;fill:#1e5d93;fill-opacity:1"
         id="path3995"
         inkscape:connector-curvature="0"
         sodipodi:nodetypes="sccscccsscscsssccsccsccsccs"
         inkscape:export-xdpi="332.79987"
         inkscape:export-ydpi="332.79987" />
      <circle
         id="path4006"
         cx="100.44717"
         cy="81.128349"
         style="stroke-width:0.07000434;fill:#1e5d93;fill-opacity:1"
         r="4.1104989"
         inkscape:export-xdpi="332.79987"
         inkscape:export-ydpi="332.79987" />
    </g>
    <path
       style="font-style:normal;font-variant:normal;font-weight:normal;font-stretch:normal;font-size:10.58333302px;line-height:1.25;font-family:'EB Garamond';-inkscape-font-specification:'EB Garamond';letter-spacing:0px;word-spacing:0px;fill:#1e5d93;fill-opacity:1;stroke:none;stroke-width:0.99999994"
       d="M 25 91 C 23.666667 91 22.133724 91.100781 20.400391 91.300781 C 19.733724 91.367448 18.733724 91.433333 17.400391 91.5 C 16.067057 91.566667 14.900391 91.599609 13.900391 91.599609 L 9.6992188 91.599609 C 8.8325521 91.532943 6.9662761 91.5 4.0996094 91.5 C 2.166276 91.5 1.1992188 91.866276 1.1992188 92.599609 C 1.1992188 93.532943 2.2999999 94.199609 4.5 94.599609 C 6.9000001 94.999609 8.5007812 95.966667 9.3007812 97.5 C 10.167448 99.033333 10.599609 101.39961 10.599609 104.59961 L 10.599609 146.80078 C 10.599609 149.20078 10.033724 150.96628 8.9003906 152.09961 C 7.7670573 153.16628 5.9007813 153.93372 3.3007812 154.40039 C 2.1674479 154.60039 1.3341146 154.83294 0.80078125 155.09961 C 0.2674479 155.36628 0 155.73255 0 156.19922 C 0 156.93255 0.96705725 157.30078 2.9003906 157.30078 C 4.7003907 157.30078 6.9329426 157.16706 9.5996094 156.90039 C 10.132943 156.90039 10.999219 156.86745 12.199219 156.80078 C 13.465885 156.66745 14.700391 156.59961 15.900391 156.59961 C 17.367057 156.59961 18.700391 156.70039 19.900391 156.90039 C 21.633724 157.16706 23.565885 157.30078 25.699219 157.30078 C 27.632552 157.30078 28.599609 156.93255 28.599609 156.19922 C 28.599609 155.73255 28.334115 155.36628 27.800781 155.09961 C 27.267448 154.83294 26.434115 154.60039 25.300781 154.40039 C 22.900781 153.93372 21.166276 152.99961 20.099609 151.59961 C 19.099609 150.19961 18.599609 148.23255 18.599609 145.69922 L 18.599609 98 C 18.599609 95.2 20.733333 93.800781 25 93.800781 C 30.066667 93.800781 34.099609 95.134115 37.099609 97.800781 C 40.166276 100.46745 41.699219 104.36667 41.699219 109.5 C 41.699219 115.5 40.666276 120.13372 38.599609 123.40039 C 36.532943 126.66706 33.532943 128.30078 29.599609 128.30078 C 28.399609 128.30078 27.366667 128.26589 26.5 128.19922 C 25.7 128.13255 25.2 128.09961 25 128.09961 C 24.666667 128.09961 24.300391 128.26628 23.900391 128.59961 C 23.567057 128.93294 23.400391 129.23333 23.400391 129.5 C 23.400391 129.96667 23.799609 130.40078 24.599609 130.80078 C 25.466276 131.20078 26.567057 131.40039 27.900391 131.40039 C 32.833724 131.40039 36.967448 130.40039 40.300781 128.40039 C 43.700781 126.40039 46.200781 123.70078 47.800781 120.30078 C 49.467448 116.83411 50.300781 113.00078 50.300781 108.80078 C 50.300781 103.26745 48.000391 98.934115 43.400391 95.800781 C 38.800391 92.600781 32.666667 91 25 91 z M 60.173828 91.5 C 58.240495 91.5 57.273438 91.866276 57.273438 92.599609 C 57.273438 93.532943 58.374219 94.199609 60.574219 94.599609 C 63.107552 95.066276 64.840104 95.833724 65.773438 96.900391 C 66.773438 97.900391 67.273438 99.567057 67.273438 101.90039 L 67.273438 146.90039 C 67.273438 149.23372 66.672656 150.96628 65.472656 152.09961 C 64.339323 153.16628 62.473047 153.93372 59.873047 154.40039 C 58.739714 154.60039 57.90638 154.83294 57.373047 155.09961 C 56.839714 155.36628 56.574219 155.73255 56.574219 156.19922 C 56.574219 156.93255 57.539323 157.30078 59.472656 157.30078 C 60.272656 157.30078 62.373437 157.2 65.773438 157 C 67.373438 156.8 69.10599 156.69922 70.972656 156.69922 C 75.50599 156.69922 80.073828 156.8 84.673828 157 C 95.073828 157.2 100.9401 157.30078 102.27344 157.30078 C 102.5401 157.30078 102.73971 157.2 102.87305 157 C 103.07305 156.86667 103.23971 156.63411 103.37305 156.30078 C 103.50638 155.96745 103.60716 155.73294 103.67383 155.59961 C 104.27383 154.26628 104.94049 152.23333 105.67383 149.5 C 106.40716 146.7 106.77344 144.86667 106.77344 144 C 106.77344 143.06667 106.33932 142.59961 105.47266 142.59961 C 105.00599 142.59961 104.54089 143.03372 104.07422 143.90039 C 102.94089 146.03372 101.94089 147.70039 101.07422 148.90039 C 100.27422 150.03372 99.373047 150.93294 98.373047 151.59961 C 97.373047 152.19961 96.140495 152.63372 94.673828 152.90039 C 93.273828 153.16706 91.473438 153.30078 89.273438 153.30078 L 81.873047 153.30078 C 79.539713 153.30078 77.840104 152.80078 76.773438 151.80078 C 75.773437 150.80078 75.273438 149.06628 75.273438 146.59961 L 75.273438 127.40039 C 75.273438 126.33372 75.50599 125.63411 75.972656 125.30078 C 76.50599 124.96745 77.407161 124.80078 78.673828 124.80078 L 87.972656 124.80078 C 89.239323 124.80078 90.20638 125.16706 90.873047 125.90039 C 91.60638 126.56706 92.174219 127.70078 92.574219 129.30078 C 93.107552 131.43411 93.873047 132.5 94.873047 132.5 C 95.473047 132.5 95.773438 131.93411 95.773438 130.80078 L 95.673828 128.40039 L 95.574219 123.09961 L 95.773438 118.69922 L 95.873047 116.09961 C 95.873047 115.63294 95.70638 115.26667 95.373047 115 C 95.10638 114.66667 94.840885 114.5 94.574219 114.5 C 93.774219 114.5 93.173438 115.23255 92.773438 116.69922 C 92.240104 118.63255 91.60638 119.93294 90.873047 120.59961 C 90.139714 121.26628 88.839323 121.59961 86.972656 121.59961 L 77.074219 121.59961 C 76.607552 121.59961 76.173438 121.4 75.773438 121 C 75.440104 120.53333 75.273438 120.00039 75.273438 119.40039 L 75.273438 98.199219 C 75.273438 97.332552 75.707552 96.6 76.574219 96 C 77.440885 95.333333 78.20638 95 78.873047 95 L 91.972656 95 C 94.839323 95 97.073828 95.899219 98.673828 97.699219 C 99.207161 98.232552 99.674219 99.199609 100.07422 100.59961 C 100.47422 101.99961 100.73971 102.86589 100.87305 103.19922 C 101.00638 103.59922 101.1401 103.86667 101.27344 104 C 101.40677 104.13333 101.63932 104.19922 101.97266 104.19922 C 102.90599 104.19922 103.37305 103.69922 103.37305 102.69922 C 103.37305 101.16589 103.14049 99.200781 102.67383 96.800781 C 102.27383 94.400781 102.00638 92.933724 101.87305 92.400391 C 101.80638 91.800391 101.20755 91.5 100.07422 91.5 L 91.574219 91.699219 L 77.873047 91.800781 L 69.373047 91.699219 C 65.773047 91.565885 62.707162 91.5 60.173828 91.5 z "
       id="path4050"
       transform="matrix(0.26458333,0,0,0.26458333,38.103758,69.553631)" />
    <path
       style="font-style:normal;font-variant:normal;font-weight:normal;font-stretch:normal;font-size:10.58333302px;line-height:1.25;font-family:'EB Garamond';-inkscape-font-specification:'EB Garamond';letter-spacing:0px;word-spacing:0px;fill:#1e5d93;fill-opacity:1;stroke:none;stroke-width:0.99999994"
       d="M 143.31836 90.900391 C 142.51836 90.900391 141.51836 90.933333 140.31836 91 C 139.18503 91.066667 137.91953 91.132552 136.51953 91.199219 C 132.3862 91.532552 128.95208 91.699219 126.21875 91.699219 C 123.61875 91.699219 121.81836 91.666276 120.81836 91.599609 L 115.11914 91.5 C 113.18581 91.5 112.21875 91.934115 112.21875 92.800781 C 112.21875 93.334115 112.4513 93.733333 112.91797 94 C 113.38464 94.2 114.25286 94.399609 115.51953 94.599609 C 118.05286 95.066276 119.78542 95.833724 120.71875 96.900391 C 121.71875 97.900391 122.21875 99.567057 122.21875 101.90039 L 122.21875 146.90039 C 122.21875 149.30039 121.71875 151.03294 120.71875 152.09961 C 119.78542 153.16628 118.05286 153.93372 115.51953 154.40039 C 114.11953 154.66706 113.21836 154.86667 112.81836 155 C 112.41836 155.13333 112.21875 155.46667 112.21875 156 C 112.21875 156.86667 113.18581 157.30078 115.11914 157.30078 C 117.65247 157.30078 119.65247 157.2 121.11914 157 C 122.98581 156.86667 124.48581 156.80078 125.61914 156.80078 C 129.08581 156.80078 134.48503 156.96745 141.81836 157.30078 L 146.41797 157.5 C 152.68464 157.5 158.48503 155.93411 163.81836 152.80078 C 169.15169 149.66745 173.3862 145.43294 176.51953 140.09961 C 179.65286 134.69961 181.21875 128.86628 181.21875 122.59961 C 181.21875 116.53294 179.88542 111.13372 177.21875 106.40039 C 174.61875 101.60039 170.48503 97.832943 164.81836 95.099609 C 159.15169 92.299609 151.98503 90.900391 143.31836 90.900391 z M 190.60938 91.5 C 188.67604 91.5 187.70898 91.866276 187.70898 92.599609 C 187.70898 93.532943 188.80977 94.199609 191.00977 94.599609 C 193.5431 95.066276 195.27565 95.800781 196.20898 96.800781 C 197.20898 97.800781 197.70898 99.467448 197.70898 101.80078 L 197.70898 147 C 197.70898 149.26667 197.07526 150.96628 195.80859 152.09961 C 194.54193 153.16628 192.57682 153.93372 189.91016 154.40039 C 188.77682 154.60039 187.94349 154.83294 187.41016 155.09961 C 186.87682 155.36628 186.60938 155.73255 186.60938 156.19922 C 186.60937 156.93255 187.57643 157.30078 189.50977 157.30078 C 191.97643 157.30078 194.20898 157.2 196.20898 157 C 198.60898 156.86667 200.64193 156.80078 202.30859 156.80078 C 203.70859 156.80078 205.47604 156.86667 207.60938 157 C 209.40938 157.2 211.5431 157.30078 214.00977 157.30078 C 215.9431 157.30078 216.91016 156.93255 216.91016 156.19922 C 216.91016 155.73255 216.64271 155.36628 216.10938 155.09961 C 215.57604 154.83294 214.74271 154.60039 213.60938 154.40039 C 210.94271 153.93372 208.94271 153.16628 207.60938 152.09961 C 206.34271 150.96628 205.70898 149.26667 205.70898 147 L 205.70898 101.80078 C 205.70898 99.534115 206.24193 97.900391 207.30859 96.900391 C 208.37526 95.833724 210.20859 95.066276 212.80859 94.599609 C 215.00859 94.199609 216.10938 93.532943 216.10938 92.599609 C 216.10938 91.866276 215.14232 91.5 213.20898 91.5 C 211.27565 91.5 209.24271 91.565885 207.10938 91.699219 L 202.30859 91.800781 L 197.00977 91.699219 C 194.60977 91.565885 192.47604 91.5 190.60938 91.5 z M 143.81836 94 C 148.48503 94 152.95208 95.232552 157.21875 97.699219 C 161.55208 100.09922 165.05208 103.59922 167.71875 108.19922 C 170.38542 112.79922 171.71875 118.16745 171.71875 124.30078 C 171.71875 130.03411 170.58503 135.16589 168.31836 139.69922 C 166.11836 144.16589 162.98464 147.66589 158.91797 150.19922 C 154.91797 152.73255 150.35208 154 145.21875 154 C 140.61875 154 136.95208 153.36628 134.21875 152.09961 C 131.55208 150.83294 130.21875 148.36589 130.21875 144.69922 L 130.21875 100.09961 C 130.21875 98.166276 130.71875 96.767057 131.71875 95.900391 C 132.71875 95.033724 134.08503 94.500781 135.81836 94.300781 C 137.61836 94.100781 140.28503 94 143.81836 94 z "
       id="path4048"
       transform="matrix(0.26458333,0,0,0.26458333,38.103758,69.553631)" />
    <path
       style="font-style:normal;font-variant:normal;font-weight:normal;font-stretch:normal;font-size:10.58333302px;line-height:1.25;font-family:'EB Garamond';-inkscape-font-specification:'EB Garamond';letter-spacing:0px;word-spacing:0px;fill:#1e5d93;fill-opacity:1;stroke:none;stroke-width:0.99999994"
       d="M 250.61719 93.164062 C 250.59549 93.170952 250.51172 93.193359 250.49414 93.199219 C 250.29414 94.999219 249.82708 96.933333 249.09375 99 C 245.42708 108.93333 242.26042 117.23372 239.59375 123.90039 C 236.99375 130.50039 233.92786 137.86667 230.39453 146 C 229.39453 148.33333 228.19297 150.06589 226.79297 151.19922 C 225.39297 152.26589 223.7263 153.09922 221.79297 153.69922 C 219.59297 154.36589 218.49414 155.13333 218.49414 156 C 218.49414 156.4 218.75964 156.70039 219.29297 156.90039 C 219.8263 157.16706 220.52786 157.30078 221.39453 157.30078 C 222.99453 157.30078 224.72708 157.2 226.59375 157 C 227.26042 157 228.26042 156.93411 229.59375 156.80078 C 230.99375 156.73411 232.2612 156.69922 233.39453 156.69922 L 239.49414 156.80078 C 240.29414 156.86745 241.29414 156.90039 242.49414 156.90039 C 244.42747 156.90039 245.39453 156.53411 245.39453 155.80078 C 245.39453 155.33411 245.12708 154.96589 244.59375 154.69922 C 244.12708 154.43255 243.29375 154.13411 242.09375 153.80078 C 240.42708 153.40078 239.02786 152.69922 237.89453 151.69922 C 236.82786 150.69922 236.29297 149.49961 236.29297 148.09961 C 236.29297 147.49961 236.79297 145.49961 237.79297 142.09961 C 238.79297 138.63294 239.6612 135.83255 240.39453 133.69922 C 240.79453 132.49922 241.36042 131.90039 242.09375 131.90039 L 260.99414 131.90039 C 261.92747 131.90039 262.5612 131.96628 262.89453 132.09961 C 263.29453 132.23294 263.56003 132.53333 263.69336 133 C 266.29336 141.66667 267.59375 147.06589 267.59375 149.19922 C 267.59375 151.53255 265.56081 153.03255 261.49414 153.69922 C 260.56081 153.83255 259.76042 154.1 259.09375 154.5 C 258.49375 154.83333 258.19336 155.19961 258.19336 155.59961 C 258.19336 156.39961 259.16042 156.80078 261.09375 156.80078 L 271.59375 156.69922 C 273.52708 156.69922 276.36042 156.83294 280.09375 157.09961 L 285.49414 157.30078 C 287.42747 157.30078 288.39453 156.96745 288.39453 156.30078 C 288.39453 155.83411 288.09414 155.4 287.49414 155 C 286.96081 154.53333 286.16042 154.2 285.09375 154 C 282.69375 153.6 280.72669 152.76667 279.19336 151.5 C 277.66003 150.16667 276.26081 147.66667 274.99414 144 C 268.14297 124.17113 262.30259 106.63477 257.4043 91.232422 C 255.65434 91.876813 253.87789 92.464478 252.03711 92.912109 C 251.57666 93.02408 251.08332 93.064403 250.61719 93.164062 z M 252.79297 100.90039 C 252.99297 100.90039 253.29336 101.49922 253.69336 102.69922 L 261.49414 127.09961 L 261.69336 128.09961 C 261.69336 128.29961 261.55964 128.43333 261.29297 128.5 C 261.0263 128.56667 260.69297 128.59961 260.29297 128.59961 L 244.79297 128.59961 C 243.99297 128.59961 243.42708 128.56667 243.09375 128.5 C 242.82708 128.43333 242.69336 128.23372 242.69336 127.90039 L 242.89453 127.09961 L 251.99414 102.59961 C 252.39414 101.46628 252.65964 100.90039 252.79297 100.90039 z "
       id="path4046"
       transform="matrix(0.26458333,0,0,0.26458333,38.103758,69.553631)" />
  </g>
  <g
     inkscape:groupmode="layer"
     id="layer2"
     inkscape:label="corbeille"
     style="display:none"
     transform="translate(-38.103758,-69.553631)">
    <text
       id="text3987"
       y="92.236488"
       x="37.371479"
       style="font-style:normal;font-variant:normal;font-weight:bold;font-stretch:normal;font-size:31.75px;line-height:1.25;font-family:Montserrat;-inkscape-font-specification:'Montserrat, Bold';font-variant-ligatures:normal;font-variant-caps:normal;font-variant-numeric:normal;font-feature-settings:normal;text-align:start;letter-spacing:0px;word-spacing:0px;writing-mode:lr-tb;text-anchor:start;display:inline;fill:#000000;fill-opacity:1;stroke:none;stroke-width:0.26458332"
       xml:space="preserve"><tspan
         style="font-style:normal;font-variant:normal;font-weight:bold;font-stretch:normal;font-size:31.75px;font-family:Montserrat;-inkscape-font-specification:'Montserrat, Bold';font-variant-ligatures:normal;font-variant-caps:normal;font-variant-numeric:normal;font-feature-settings:normal;text-align:start;writing-mode:lr-tb;text-anchor:start;stroke-width:0.26458332"
         y="92.236488"
         x="37.371479"
         id="tspan3985"
         sodipodi:role="line">NAO</tspan></text>
  </g>
</svg>
