<svg id="Calque_2" data-name="Calque 2" xmlns="http://www.w3.org/2000/svg" viewBox="0 0 400 400"><defs><style>.cls-1{fill:#fff;}</style></defs><title>partner</title><path class="cls-1" d="M331.39,212.69a330.19,330.19,0,0,0-36.16-4.58q.15-2.79.15-5.61a105.59,105.59,0,1,0-205.19,35,236,236,0,0,0-23.89,3.15l-7.61,1.49,3.31,7c1,2.17,25.37,53.1,55.87,68.51,11,5.56,21.3,8.38,30.59,8.38h0c13.84,0,25.18-6.25,32.31-17.71,9.36,11.19,22.53,17.21,38.12,17.21,12.42,0,26.23-3.79,41-11.27,41.23-20.83,74.37-90.16,75.76-93.1l3.31-7Zm-54.61-44.53a86.2,86.2,0,0,0-13.72-9.1,122.46,122.46,0,0,0-21-8.82,122.46,122.46,0,0,0-8.82-21,86.76,86.76,0,0,0-9.1-13.73,94.07,94.07,0,0,1,52.65,52.66Zm5.76,28.3H249.65a179.93,179.93,0,0,0-3.84-32c19.6,7.66,33.4,19.12,36.73,32Zm-86.71-86.71c12.88,3.33,24.35,17.13,32,36.73a179,179,0,0,0-32-3.84Zm0,45A163,163,0,0,1,232.27,160a163,163,0,0,1,5.31,36.44H195.83Zm0,53.82h41.75c0,.53,0,1.06-.07,1.6a97,97,0,0,0-26,8.29,123.36,123.36,0,0,0-15.67,9.36Zm-12.07-98.78v32.89a178.9,178.9,0,0,0-32,3.84c7.66-19.6,19.12-33.4,32-36.73Zm0,45v41.75H142A163,163,0,0,1,147.32,160a163,163,0,0,1,36.44-5.31Zm-28.3-39.21a86.76,86.76,0,0,0-9.1,13.73,121.67,121.67,0,0,0-8.82,21,122.57,122.57,0,0,0-21,8.82,88,88,0,0,0-13.72,9.1,94.06,94.06,0,0,1,52.66-52.66Zm-21.69,48.95a179,179,0,0,0-3.83,32H97.05c3.33-12.89,17.12-24.35,36.72-32Zm-3.83,44.08a180.54,180.54,0,0,0,3.4,30c-2.07-.35-4.2-.65-6.42-.89C111,230.09,100,219.86,97.05,208.53Zm37.61,97.41c-4,4.41-10,8.05-19.08,8.05h0c-7.39,0-15.85-2.38-25.15-7.08-20.53-10.38-39.06-41.49-46.7-55.69a238.15,238.15,0,0,1,32.72-2.47c17.21,0,30.6,2.36,39.81,7,8.31,4.19,14.66,8.88,19,13.94a50.09,50.09,0,0,0,5,26.63l-61-28.56Zm-7.93-58.22q-2.42-1.4-5-2.73a60.7,60.7,0,0,0-8.11-3.32A164.07,164.07,0,0,1,142,208.53h41.75v29.52a61.67,61.67,0,0,0-9,11.69c-5.2-.45-10.27-1.13-15.17-2Zm94.87,55.79c-13.1,6.63-25.08,10-35.59,10-14,0-23.1-6-28.92-13l83.78-53.67-89.15,45.45a.54.54,0,0,1-.05-.11c-11.93-23.62-.13-46.58,32.39-63,13-6.56,31.73-9.89,55.74-9.89a332.73,332.73,0,0,1,48.45,3.89c-9.48,18.05-36.39,65-66.65,80.31Zm0,0"/></svg>