<svg id="Calque_1" data-name="Calque 1" xmlns="http://www.w3.org/2000/svg" viewBox="0 0 145.47 119.04"><defs><style>.cls-1{fill:#1e5d93;}</style></defs><title>bird-1</title><path class="cls-1" d="M128.35,35.73A51.41,51.41,0,0,0,111.4,13.6,50.27,50.27,0,0,0,86.1,3.74,56.56,56.56,0,0,0,57.7,8.35,57.71,57.71,0,0,0,34.45,25.68L11.33,28.92c7.32,5,10.1,6.61,10.1,6.61A15.43,15.43,0,0,1,10.3,33.84l13.45,17a75.48,75.48,0,0,0,1.08,27.51c2,9,13,20,21.12,25.9,7.5,5.44,17.88,7.1,24.88,7.1a75.33,75.33,0,0,0,27.51-5.47,58.92,58.92,0,0,0,18.35-12c4.29,2.48,8.42,2.95,10.14.83a3.62,3.62,0,0,0,.68-1.82,2.74,2.74,0,0,0,2.57-.66,1.91,1.91,0,0,0,.38-1.06c3.22,1.67,5.63,2.22,6.42,1.24,1.38-1.72-2.68-7.55-9.29-13.63a51.21,51.21,0,0,0,4.63-15.22A52.63,52.63,0,0,0,128.35,35.73ZM91.19,79.51c-16,6.81-34.07.25-40.28-14.66S52.67,32.33,68.7,25.52s34.07-.25,40.29,14.66S107.23,72.7,91.19,79.51Z"/><ellipse id="path4006" class="cls-1" cx="83.32" cy="55.33" rx="14.22" ry="14.55"/><ellipse class="cls-1" cx="87.8" cy="49.25" rx="5.33" ry="5.46"/><ellipse class="cls-1" cx="20" cy="69.37" rx="14" ry="3.5" transform="translate(-16.87 7.3) rotate(-14.63)"/><ellipse class="cls-1" cx="24.88" cy="72.23" rx="14" ry="3.5" transform="matrix(0.97, -0.25, 0.25, 0.97, -17.43, 8.62)"/><ellipse class="cls-1" cx="32.67" cy="74.34" rx="14" ry="3.5" transform="translate(-17.71 10.66) rotate(-14.63)"/><ellipse class="cls-1" cx="81.54" cy="107.9" rx="1.98" ry="9.26" transform="translate(-43.03 55.23) rotate(-30)"/><ellipse class="cls-1" cx="77.16" cy="106.97" rx="1.98" ry="9.26" transform="translate(-43.15 52.91) rotate(-30)"/><ellipse class="cls-1" cx="85.19" cy="108.68" rx="1.98" ry="9.26" transform="translate(-42.93 57.16) rotate(-30)"/></svg>