<svg id="Calque_2" data-name="Calque 2" xmlns="http://www.w3.org/2000/svg" viewBox="0 0 400 400"><defs><style>.cls-1{fill:#fff;}</style></defs><title>home</title><path class="cls-1" d="M346.7,173.17,206,70.14a7.71,7.71,0,0,0-9.12,0l-140.71,103a7.71,7.71,0,1,0,9.11,12.45l136.16-99.7,136.16,99.7a7.71,7.71,0,0,0,9.11-12.45Z"/><path class="cls-1" d="M309.42,187.36a7.72,7.72,0,0,0-7.72,7.72V317.85H240v-67a38.57,38.57,0,0,0-77.14,0v67h-61.7V195.08a7.72,7.72,0,1,0-15.43,0V325.56a7.71,7.71,0,0,0,7.71,7.71h77.13a7.71,7.71,0,0,0,7.69-7.11,5.34,5.34,0,0,0,0-.6V250.83a23.14,23.14,0,1,1,46.28,0v74.73a5.47,5.47,0,0,0,0,.6,7.71,7.71,0,0,0,7.69,7.11h77.13a7.71,7.71,0,0,0,7.71-7.71V195.08A7.72,7.72,0,0,0,309.42,187.36Z"/></svg>