<svg id="Calque_2" data-name="Calque 2" xmlns="http://www.w3.org/2000/svg" viewBox="0 0 400 400"><defs><style>.cls-1{fill:#fff;}</style></defs><title>loupe</title><path class="cls-1" d="M379.91,362.82,298,281a143.1,143.1,0,0,0,35.26-94.2c0-79.26-64.47-143.65-143.65-143.65S46,107.57,46,186.75,110.47,330.4,189.65,330.4a143.06,143.06,0,0,0,94.19-35.26L365.71,377a10.18,10.18,0,0,0,7.1,3,9.83,9.83,0,0,0,7.1-3A10.09,10.09,0,0,0,379.91,362.82ZM191.3,307.28A118.88,118.88,0,1,1,310.18,188.4,118.88,118.88,0,0,1,191.3,307.28Z"/></svg>