<svg id="Calque_2" data-name="Calque 2" xmlns="http://www.w3.org/2000/svg" viewBox="0 0 400 400"><defs><style>.cls-1{fill:#fff;}</style></defs><title>loupe-bird</title><path class="cls-1" d="M365.5,351.27l-81.87-81.88a143,143,0,0,0,35.25-94.19c0-79.26-64.46-143.65-143.64-143.65S31.59,96,31.59,175.2,96.05,318.85,175.24,318.85a143.07,143.07,0,0,0,94.19-35.26l81.87,81.87a10.18,10.18,0,0,0,7.1,3,9.85,9.85,0,0,0,7.1-3A10.1,10.1,0,0,0,365.5,351.27ZM176.88,295.73A118.88,118.88,0,1,1,295.76,176.85,118.88,118.88,0,0,1,176.88,295.73Z"/><path class="cls-1" d="M240.59,216.45a82,82,0,0,1-4.59-7,69.32,69.32,0,0,0-108.06-85.73L95,116l20,26.16a69.39,69.39,0,0,0,34.66,93.48l4.77,19,4-15.9a69.4,69.4,0,0,0,33,1.31l9.27,27.8V237.53a68.88,68.88,0,0,0,18-9.55c9.29,10.51,30.87,8.23,30.87,8.23S249.34,228.12,240.59,216.45ZM200.7,195.27a26.42,26.42,0,1,1,26.42-26.42A26.42,26.42,0,0,1,200.7,195.27Z"/></svg>