<svg id="Calque_2" data-name="Calque 2" xmlns="http://www.w3.org/2000/svg" viewBox="0 0 400 400"><defs><style>.cls-1{fill:#fff;}</style></defs><title>nao</title><path class="cls-1" d="M120.76,160.68Q123.48,186,137.7,205a87.63,87.63,0,0,0,37,28C190,239.2,186.19,278.25,204,276.33s23.11-35.71,67.17-53.67c15.06-6.15,23.47-21,30.2-35.29q10.08-21.69,7.35-47T291.57,96.32a86.92,86.92,0,0,0-37.06-28.27q-22.59-9.24-49.34-6.35T158.06,78.45l-3.95-.59a98.48,98.48,0,0,0-14.73,14.71,89.51,89.51,0,0,0-12,20.12l.52,1.29Q118,135.4,120.76,160.68Zm44-33.55a50.45,50.45,0,0,1,17.3-21.48,57,57,0,0,1,55-5.93A48.75,48.75,0,0,1,258.3,117a56.82,56.82,0,0,1,10.19,27.7,56.93,56.93,0,0,1-4,29.24,50.57,50.57,0,0,1-17,21.7,58.79,58.79,0,0,1-55,5.93A52.24,52.24,0,0,1,171,184.06q-8.23-11.77-9.95-27.72T164.8,127.13Z"/><circle class="cls-1" cx="219.1" cy="149" r="29.12"/><circle class="cls-1" cx="204.4" cy="326.32" r="22.68"/><path class="cls-1" d="M164.77,74.85,122.09,63.66l12.35,43a89.64,89.64,0,0,1,14.11-18.72A99.06,99.06,0,0,1,164.77,74.85Z"/></svg>