<svg id="Calque_1" data-name="Calque 1" xmlns="http://www.w3.org/2000/svg" viewBox="0 0 952.53 128.57"><defs><style>.cls-1{fill:#fff;}</style></defs><title>naopedia-long</title><g id="text3978"><path id="path3991" class="cls-1" d="M137.76,23.55v123.9H114.22L52.45,72.22v75.23H24.13V23.55H47.85l61.59,75.22V23.55Z" transform="translate(-24.13 -21)"/><path id="path3993" class="cls-1" d="M248.84,120.9H191.32l-11,26.55H151l55.22-123.9H234.5l55.4,123.9H259.81Zm-9-21.77L220.17,51.69,200.52,99.13Z" transform="translate(-24.13 -21)"/><path id="path3995" class="cls-1" d="M361,149.57a72.75,72.75,0,0,1-34.86-8.32,62.79,62.79,0,0,1-24.25-22.83,63.54,63.54,0,0,1-8.67-32.92,62.59,62.59,0,0,1,8.67-32.74L292.78,21l33.38,8.75Q341.71,21.4,361,21.43t34.69,8.32a62.26,62.26,0,0,1,33.1,55.75,61.73,61.73,0,0,1-33.1,55.75Q380.32,149.58,361,149.57Zm0-24.43a39.92,39.92,0,0,0,19.83-5A36.13,36.13,0,0,0,394.65,106a40.82,40.82,0,0,0,5.14-20.53A40.82,40.82,0,0,0,394.65,65a34.9,34.9,0,0,0-13.8-14,40.8,40.8,0,0,0-39.65,0,36.12,36.12,0,0,0-14,14,42,42,0,0,0-5,20.53,42,42,0,0,0,5,20.53,37.42,37.42,0,0,0,14,14.16A39.91,39.91,0,0,0,361,125.14Z" transform="translate(-24.13 -21)"/><circle id="path4006" class="cls-1" cx="336.92" cy="64.52" r="22.91"/></g><path id="path4050" class="cls-1" d="M482.75,23.42a75.34,75.34,0,0,0-8.63.57c-1.25.12-3.12.25-5.63.37s-4.68.19-6.56.19h-7.88q-2.43-.19-10.5-.19c-3.62,0-5.44.69-5.44,2.06,0,1.75,2.07,3,6.19,3.75q6.75,1.13,9,5.44,2.43,4.32,2.43,13.32v79.13q0,6.75-3.18,9.94-3.19,3-10.51,4.31a18.45,18.45,0,0,0-4.68,1.31,2.29,2.29,0,0,0-1.5,2.07q0,2.06,5.43,2.06,5.07,0,12.57-.75c1,0,2.62-.06,4.87-.19a66.36,66.36,0,0,1,6.94-.37,46.39,46.39,0,0,1,7.5.56,72,72,0,0,0,10.88.75c3.62,0,5.44-.69,5.44-2.06a2.29,2.29,0,0,0-1.5-2.07,18.55,18.55,0,0,0-4.69-1.31q-6.75-1.31-9.75-5.25-2.82-3.93-2.82-11.06V36.55q0-7.87,12-7.87,14.25,0,22.69,7.5,8.63,7.5,8.62,21.94,0,16.88-5.81,26.06t-16.88,9.19q-3.37,0-5.81-.19c-1.5-.12-2.44-.19-2.81-.19a3.4,3.4,0,0,0-2.07.94,2.61,2.61,0,0,0-.93,1.69c0,.87.74,1.69,2.24,2.44a14.83,14.83,0,0,0,6.19,1.12q13.89,0,23.26-5.62A34.37,34.37,0,0,0,525.5,78.37a49.06,49.06,0,0,0,4.69-21.57q0-15.55-12.94-24.37Q504.31,23.43,482.75,23.42Zm66,.94q-5.43,0-5.43,2.06,0,2.63,6.19,3.75,7.13,1.32,9.74,4.32Q562,37.3,562,43.86v84.39q0,6.56-3.38,9.75-3.18,3-10.5,4.31a18.42,18.42,0,0,0-4.69,1.31,2.29,2.29,0,0,0-1.5,2.07q0,2.06,5.44,2.06,2.25,0,11.81-.56a77.92,77.92,0,0,1,9.75-.57q12.76,0,25.7.57,29.25.56,33,.56a1.26,1.26,0,0,0,1.12-.56,2.73,2.73,0,0,0,.94-1.31q.38-.94.57-1.32A82.37,82.37,0,0,0,634,133.12q2.06-7.87,2.06-10.31c0-1.75-.82-2.63-2.44-2.63-.88,0-1.75.82-2.62,2.44A83.4,83.4,0,0,1,625.4,132a19.61,19.61,0,0,1-5.06,5.06,20.52,20.52,0,0,1-6.94,2.44,55.9,55.9,0,0,1-10.13.75H589.39q-6.55,0-9.56-2.81-2.8-2.82-2.81-9.75v-36c0-2,.44-3.31,1.31-3.93s2.69-.94,5.07-.94h17.43a7,7,0,0,1,5.44,2.06q2.07,1.88,3.19,6.38,1.5,6,4.31,6c1.13,0,1.69-1.07,1.69-3.19l-.19-4.5-.18-9.94.37-8.25.19-4.88a2.49,2.49,0,0,0-.94-2.06,2,2,0,0,0-1.5-.94q-2.25,0-3.37,4.13-1.5,5.43-3.57,7.31T599,80.8H580.4A3.39,3.39,0,0,1,578,79.68a5,5,0,0,1-.94-3V36.92a4.92,4.92,0,0,1,2.44-4.12,7.45,7.45,0,0,1,4.31-1.88h24.56q8.07,0,12.57,5.07a12.84,12.84,0,0,1,2.63,5.44c.75,2.62,1.24,4.25,1.49,4.87a4.07,4.07,0,0,0,.75,1.5,1.84,1.84,0,0,0,1.32.38c1.75,0,2.62-.94,2.62-2.82A59.93,59.93,0,0,0,628.4,34.3q-1.12-6.75-1.5-8.25c-.13-1.13-1.25-1.69-3.37-1.69l-15.94.38-25.7.19L566,24.74Q555.83,24.37,548.7,24.36Z" transform="translate(-24.13 -21)"/><path id="path4048" class="cls-1" d="M704.62,23.24c-1.5,0-3.38.06-5.63.18s-4.5.25-7.12.38q-11.62.93-19.32.94c-4.87,0-8.25-.07-10.12-.19l-10.69-.19c-3.63,0-5.44.82-5.44,2.44a2.44,2.44,0,0,0,1.31,2.25,23.78,23.78,0,0,0,4.88,1.12q7.13,1.32,9.75,4.32,2.81,2.81,2.81,9.37v84.39q0,6.75-2.81,9.75-2.62,3-9.75,4.31a50.5,50.5,0,0,0-5.07,1.13,1.72,1.72,0,0,0-1.12,1.87q0,2.44,5.44,2.44a88.7,88.7,0,0,0,11.25-.56q5.25-.37,8.44-.38,9.75,0,30.38.94l8.62.38a63.25,63.25,0,0,0,32.63-8.82,65.91,65.91,0,0,0,23.82-23.81,64.35,64.35,0,0,0,8.81-32.82q0-17.07-7.5-30.38-7.32-13.5-23.25-21.19Q729,23.24,704.62,23.24Zm88.68,1.12q-5.44,0-5.44,2.06,0,2.63,6.19,3.75,7.13,1.32,9.75,4.13,2.81,2.82,2.81,9.38v84.76q0,6.38-3.56,9.56-3.57,3-11.06,4.31a18.42,18.42,0,0,0-4.69,1.31,2.29,2.29,0,0,0-1.5,2.07q0,2.06,5.44,2.06,6.93,0,12.56-.56,6.75-.37,11.44-.38c2.62,0,5.94.13,9.94.38a111.71,111.71,0,0,0,12,.56q5.45,0,5.44-2.06a2.29,2.29,0,0,0-1.5-2.07,18.55,18.55,0,0,0-4.69-1.31q-7.5-1.31-11.25-4.31-3.57-3.19-3.57-9.56V43.68q0-6.37,3-9.19,3-3,10.32-4.32c4.12-.75,6.19-2,6.19-3.75,0-1.37-1.82-2.06-5.44-2.06s-7.44.13-11.44.38l-9,.19-9.94-.19Q798.55,24.37,793.3,24.36Zm-87.74,4.69A49.42,49.42,0,0,1,730.68,36a51.29,51.29,0,0,1,19.69,19.69q7.5,12.93,7.51,30.19a63.74,63.74,0,0,1-6.38,28.88,47.19,47.19,0,0,1-43.32,26.81q-12.93,0-20.63-3.56-7.5-3.57-7.5-13.88V40.49c0-3.63.94-6.25,2.82-7.88a13.91,13.91,0,0,1,7.68-3A149.3,149.3,0,0,1,705.56,29.05Z" transform="translate(-24.13 -21)"/><path id="path4046" class="cls-1" d="M905.83,27.48l-.23.07A49.61,49.61,0,0,1,903,38.43q-10.32,27.93-17.81,46.69-7.32,18.57-17.26,41.44-2.8,6.57-6.75,9.75a30,30,0,0,1-9.38,4.69q-6.18,1.88-6.18,4.31c0,.75.5,1.32,1.5,1.69a8.84,8.84,0,0,0,3.94.75,93.22,93.22,0,0,0,9.75-.56q1.88,0,5.62-.38c2.63-.12,5-.19,7.13-.19l11.44.19c1.5.13,3.37.19,5.62.19q5.45,0,5.44-2.06a2.29,2.29,0,0,0-1.5-2.07,22.59,22.59,0,0,0-4.69-1.68,18.07,18.07,0,0,1-7.87-3.94,8.94,8.94,0,0,1-3-6.75q0-1.69,2.81-11.25,2.81-9.75,4.88-15.76,1.13-3.37,3.18-3.37h35.45a11.18,11.18,0,0,1,3.56.37,2.31,2.31,0,0,1,1.5,1.69q7.3,24.38,7.31,30.38,0,6.57-11.44,8.44a12,12,0,0,0-4.5,1.5c-1.12.63-1.69,1.31-1.69,2.06,0,1.5,1.82,2.25,5.44,2.25l19.69-.19q5.45,0,15.94.75l10.13.38c3.62,0,5.44-.62,5.44-1.87a3.09,3.09,0,0,0-1.69-2.44,9.41,9.41,0,0,0-4.5-1.88,22.93,22.93,0,0,1-11.07-4.69q-4.3-3.75-7.87-14.06c-12.85-37.18-23.8-70.07-33-98.95A91.79,91.79,0,0,1,908.49,27C907.63,27.22,906.7,27.3,905.83,27.48ZM909.91,42c.37,0,.94,1.12,1.69,3.37l14.62,45.76L926.6,93q0,.57-.75.75a7.67,7.67,0,0,1-1.88.19H894.9a17.82,17.82,0,0,1-3.18-.19c-.5-.12-.75-.49-.75-1.12l.37-1.5,17.07-45.94C909.16,43.05,909.66,42,909.91,42Z" transform="translate(-24.13 -21)"/></svg>