<svg id="Calque_2" data-name="Calque 2" xmlns="http://www.w3.org/2000/svg" viewBox="0 0 400 400"><defs><style>.cls-1{fill:#fff;}</style></defs><title>observations</title><path class="cls-1" d="M311.37,126.91a51.37,51.37,0,0,0-44-24.6,52.76,52.76,0,0,0-7.59.56h0a23.8,23.8,0,0,0-44.07,12.47v41.6H185v-41.6a23.81,23.81,0,0,0-44.09-12.46,52.62,52.62,0,0,0-7.58-.56,51.37,51.37,0,0,0-44,24.6c-.14.21-.53.86-10.1,16.9a5.81,5.81,0,1,0,10,6l10-16.76a40,40,0,0,1,74.16,21h0v57.28A79.08,79.08,0,0,0,70,182c2.76-4.64,5.69-9.54,8.62-14.45a5.82,5.82,0,0,0-10-6c-12.35,20.72-31.79,51.8-34.25,56.93A79.16,79.16,0,1,0,185,252.53V237.09h30.74v15.44a79.16,79.16,0,1,0,150.19-34.9C363.5,212.82,312.66,129,311.37,126.91Zm-9.9,6.1c.7,1.13,15.23,25.5,29.21,49a79.09,79.09,0,0,0-103.37,29.32V154h0a40,40,0,0,1,74.16-21Zm-74.16-17.68a12.17,12.17,0,0,1,20.29-9.08,51.87,51.87,0,0,0-20.29,15.12Zm-11.62,53.23v34.58H185V168.56ZM153,106.25a12,12,0,0,1,8.1-3.1,12.2,12.2,0,0,1,12.18,12.18v6A52,52,0,0,0,153,106.25ZM105.79,320.06a67.53,67.53,0,1,1,67.53-67.53A67.61,67.61,0,0,1,105.79,320.06ZM185,225.46v-10.7h30.74v10.7Zm109.89,94.6a67.53,67.53,0,1,1,67.53-67.53A67.61,67.61,0,0,1,294.84,320.06Z"/><path class="cls-1" d="M345.81,234.21a5.81,5.81,0,0,0-10.94,3.94A42.55,42.55,0,1,1,326,223.57a5.81,5.81,0,1,0,8.51-7.92,54,54,0,1,0,11.32,18.56Z"/><path class="cls-1" d="M105.79,198.39a54.15,54.15,0,1,0,54.15,54.14A54.21,54.21,0,0,0,105.79,198.39Zm0,96.66a42.52,42.52,0,1,1,42.52-42.52A42.57,42.57,0,0,1,105.79,295.05Z"/></svg>