<svg id="Calque_2" data-name="Calque 2" xmlns="http://www.w3.org/2000/svg" viewBox="0 0 400 400"><defs><style>.cls-1{fill:#fff;}</style></defs><title>photo</title><path class="cls-1" d="M328.75,335.29H80.54c-20.57,0-37.3-16-37.3-35.73V154.64c0-19.7,16.73-35.73,37.3-35.73h50.65l4.43-14.32C137.43,96.75,144.91,91,153.71,91H255.59c8.55,0,16.12,5.72,18.12,13.66l.12.49,4,13.76h50.89c20.57,0,37.3,16,37.3,35.73V299.56c0,19.7-16.74,35.73-37.31,35.73ZM80.54,130.83c-13.71,0-24.87,10.68-24.87,23.81V299.56c0,13.14,11.16,23.82,24.87,23.82H328.75c13.71,0,24.87-10.68,24.87-23.82V154.64c0-13.13-11.16-23.81-24.87-23.81h-60.3l-6.81-23.26a6.19,6.19,0,0,0-6.06-4.67H153.71a6.13,6.13,0,0,0-6.06,4.67l-7.19,23.26ZM204.66,299.29c-43.52,0-78.93-33.9-78.93-75.58s35.41-75.59,78.93-75.59,78.9,33.92,78.9,75.59-35.4,75.58-78.9,75.58Zm0-139.26c-36.66,0-66.49,28.56-66.49,63.67s29.83,63.67,66.49,63.67,66.47-28.56,66.47-63.67S241.31,160,204.66,160Zm116.06-7.1a11,11,0,1,0,11.47,11,11.24,11.24,0,0,0-11.47-11Zm0,0"/></svg>