<svg id="Calque_2" data-name="Calque 2" xmlns="http://www.w3.org/2000/svg" viewBox="0 0 400 400"><defs><style>.cls-1{fill:#fff;}</style></defs><title>picto</title><path id="path3995" class="cls-1" d="M206.84,323.53q-37.76,0-68.25-16.42A123.31,123.31,0,0,1,91.13,262q-17-29-17-65t17-64.63L73.26,69.76,138.59,87c20.3-11,43.08-16.42,68.25-16.42s47.81,5.47,67.9,16.42a122.39,122.39,0,0,1,47.47,45.41q17.32,28.65,17.32,64.63t-17.32,65a123.27,123.27,0,0,1-47.47,45.07Q244.61,323.52,206.84,323.53Zm0-48.21q21.48,0,38.8-9.78a71.24,71.24,0,0,0,27-28q10-17.82,10-40.52t-10-40.52a68.79,68.79,0,0,0-27-27.6,75.36,75.36,0,0,0-38.8-10.13A75.36,75.36,0,0,0,168,129a71.12,71.12,0,0,0-27.37,27.6q-9.71,17.8-9.7,40.52t9.7,40.52a73.7,73.7,0,0,0,27.37,28Q185.37,275.32,206.84,275.32Z"/><ellipse id="path4006" class="cls-1" cx="206.39" cy="196.65" rx="44.85" ry="45.23"/></svg>