<svg id="Calque_2" data-name="Calque 2" xmlns="http://www.w3.org/2000/svg" viewBox="0 0 400 400"><defs><style>.cls-1{fill:#fff;}</style></defs><title>pinterest</title><path class="cls-1" d="M331.08,125.15C321.83,58.55,254.59,24.59,183,32.52,126.27,38.79,69.86,84.08,67.46,148.91c-1.46,39.51,9.89,69.15,48,77.47,16.44-28.79-5.33-35.09-8.74-56-14-85.4,99.6-143.65,159-84.06,41.22,41.36,14.07,168.36-52.25,155.09-63.57-12.57,31.12-113.62-19.55-133.49-41.22-16.15-63.18,49.29-43.62,81.83-11.43,56-36.1,108.66-26.11,178.84,32.37-23.26,43.3-67.8,52.25-114.22,16.33,9.77,25.07,20,45.77,21.6,76.63,5.77,119.39-75.63,108.87-150.84Zm0,0"/></svg>