<svg id="Calque_2" data-name="Calque 2" xmlns="http://www.w3.org/2000/svg" viewBox="0 0 400 400"><defs><style>.cls-1{fill:#fff;}</style></defs><title>twitter</title><path class="cls-1" d="M347.37,103.89a119.67,119.67,0,0,1-14.93,5.38A65.08,65.08,0,0,0,345.87,85.9a4.87,4.87,0,0,0-1.64-5.35,5,5,0,0,0-5.64-.38,118.51,118.51,0,0,1-34.73,13.57A67,67,0,0,0,257.47,75c-36.54,0-66.28,29.4-66.28,65.53a66.2,66.2,0,0,0,.54,8.47A170.28,170.28,0,0,1,75.28,88,5,5,0,0,0,71,86.16a5,5,0,0,0-3.91,2.42A65,65,0,0,0,73.91,164,56.55,56.55,0,0,1,65,160.09a5,5,0,0,0-4.89,0,4.94,4.94,0,0,0-2.51,4.16v.87a65.63,65.63,0,0,0,32.44,56.36c-1.68-.17-3.37-.41-5-.73a5,5,0,0,0-4.66,1.58,4.85,4.85,0,0,0-1,4.76A66,66,0,0,0,127.91,271,120,120,0,0,1,51.2,287.91a5,5,0,0,0-5.27,3.24,4.9,4.9,0,0,0,2,5.8,180.23,180.23,0,0,0,96.65,28c67.48,0,109.68-31.46,133.21-57.85C307.13,234.2,324,190.64,324,147.6c0-1.8,0-3.61-.09-5.42a127.79,127.79,0,0,0,29.65-31.06,4.87,4.87,0,0,0-.32-5.9,5,5,0,0,0-5.83-1.33Zm0,0"/></svg>